<svg id="Layer_2" data-name="Layer 2" xmlns="http://www.w3.org/2000/svg" viewBox="0 0 1158.08 118.14"><polygon points="121.41 2.66 121.41 115.48 97.25 115.48 97.25 38.35 70.58 115.48 50.82 115.48 24.15 39.11 24.15 115.48 0 115.48 0 2.66 35.56 2.66 61.39 78.63 85.84 2.66 121.41 2.66"/><path d="M869.43,1193.59h-26l-42.83,112.82h26.13l8.76-24.87h40.91l8.45,24.87h26.75Zm-27.09,68.49L856.19,1223l13.42,39.06Z" transform="translate(-670.96 -1190.93)"/><polygon points="422.64 2.66 422.64 24.47 389.18 24.47 389.18 115.48 363.45 115.48 363.45 24.47 305.05 24.47 305.05 115.48 279.34 115.48 279.34 24.47 245.87 24.47 245.87 2.66 422.64 2.66"/><polygon points="525.92 93.67 525.92 115.48 439.99 115.48 439.99 2.66 524.67 2.66 524.67 24.47 465.72 24.47 465.72 47.23 519.82 47.23 519.82 67.47 465.72 67.47 465.72 93.67 525.92 93.67"/><path d="M1343.86,1272.67c0,10.77-4.08,19.55-12.11,26.1-8.4,6.83-20.15,10.3-34.92,10.3-13.52,0-24.79-3.25-33.49-9.66-9.81-7.27-14.74-17.59-14.63-30.65v-.58h24.93v.58c0,6.85,2.38,11.92,7.26,15.48,4.15,3,9.82,4.58,16.86,4.58a32.61,32.61,0,0,0,13.82-2.6c4.86-2.28,7.33-5.89,7.33-10.73,0-6-5.65-10.69-16.78-13.82-20-5.68-30.47-8.86-32.17-9.75-11.62-5.6-17.51-14.56-17.51-26.63,0-10.89,4.56-19.62,13.54-26,8-5.57,17.68-8.4,28.8-8.4,12.87,0,23.46,2.83,31.45,8.39,9.19,6.45,13.85,15.92,13.85,28.16v.59h-24.9l0-.55c-.61-10.84-7.83-16.34-21.47-16.34a21.34,21.34,0,0,0-11.13,2.75,10.42,10.42,0,0,0-5.17,9.33c0,3.8,1.94,6.62,5.75,8.38,3.11,1.45,12,4,27.12,7.94,8.76,2.19,15.39,4.74,19.73,7.59C1339.19,1253.09,1343.86,1261.67,1343.86,1272.67Z" transform="translate(-670.96 -1190.93)"/><path d="M1448.63,1208.18a49,49,0,0,0-17.8-12.92,58.54,58.54,0,0,0-23-4.33c-17,0-30.71,5.8-40.77,17.23-9.76,10.92-14.7,25.15-14.7,42.31,0,16.75,4.94,30.72,14.69,41.51,10.18,11.34,23.9,17.09,40.78,17.09s30.59-5.75,40.77-17.08c9.75-10.8,14.7-24.77,14.7-41.52C1463.32,1233.31,1458.38,1219.08,1448.63,1208.18Zm-17.8,67.59h0c-5.36,7.72-12.87,11.47-23,11.47s-17.62-3.75-23-11.47c-4.5-6.54-6.78-15-6.78-25.31,0-10.68,2.28-19.46,6.78-26.1,5.25-7.82,12.76-11.63,23-11.63s17.71,3.81,23,11.64c4.5,6.64,6.78,15.42,6.78,26.09C1437.6,1260.73,1435.32,1269.24,1430.83,1275.77Z" transform="translate(-670.96 -1190.93)"/><polygon points="945.62 2.66 915.28 115.48 889.98 115.48 871.36 40.71 853.05 115.48 827.29 115.48 797.42 2.66 823.2 2.66 840.58 77.41 859.65 2.66 883.55 2.66 902.31 78.34 920.31 2.66 945.62 2.66"/><path d="M1683.14,1193.59h-26l-42.82,112.82h26.13l8.76-24.87h40.91l8.44,24.87h26.75Zm-27.1,68.49L1669.9,1223l13.42,39.06Z" transform="translate(-670.96 -1190.93)"/><polygon points="1158.08 2.66 1158.08 115.48 1132.37 115.48 1132.37 67.32 1088.35 67.32 1088.35 115.48 1062.63 115.48 1062.63 2.66 1088.35 2.66 1088.35 45.51 1132.37 45.51 1132.37 2.66 1158.08 2.66"/></svg>